<?xml version="1.0" encoding="utf-8"?>
<!-- Generator: Adobe Illustrator 21.1.0, SVG Export Plug-In . SVG Version: 6.00 Build 0)  -->
<svg version="1.1" id="图层_1" xmlns="http://www.w3.org/2000/svg" xmlns:xlink="http://www.w3.org/1999/xlink" x="0px" y="0px"
	 viewBox="0 0 200 200" style="enable-background:new 0 0 200 200;" xml:space="preserve">
<style type="text/css">
	.st0{opacity:0;}
	.st1{fill:#FFFFFF;}
	.st2{fill:none;stroke:#707070;}
	.st3{fill:#5182E4;}
	.st4{opacity:0.3;fill:#626C7F;enable-background:new    ;}
	.st5{fill:#6B9BFB;}
	.st6{fill:#F2F2F2;}
	.st7{display:none;fill:#626C7F;}
	.st8{fill:none;stroke:#626C7F;stroke-width:0.75;stroke-miterlimit:10;}
	.st9{fill:#626C7F;}
	.st10{fill:#CDD2D9;}
</style>
<g id="组_4554" transform="translate(-954 -393)">
	<g id="矩形_1863" transform="translate(954 392.999)" class="st0">
		<rect y="0" class="st1" width="200" height="200"/>
		<rect x="0.5" y="0.5" class="st2" width="199" height="199"/>
	</g>
	<g id="undraw_solution_mindset_34bi" transform="translate(955.818 393.03)">
		<g id="组_4553" transform="translate(8.181 -0.031)">
			<g id="组_4552" transform="translate(43.039 36.665)">
				<path id="路径_3518" class="st3" d="M93,81L93,81l-43.7,24.3L1.4,81.4L0.6,81l2.5-49.6L46.3,0.7L46.8,1l44.7,28L93,81z"/>
				<path id="路径_3519" class="st4" d="M93,81l-43.7,24.3L1.4,81.4l42.4-29.7L93,81z"/>
				<path id="路径_3520" class="st5" d="M93,81L43.8,51.7l3-50.8l44.7,28L93,81z"/>
				<path class="st6" d="M92.1,60.5l-14.3-8.1V36l14.1,8.8l0.2-0.4l-14.3-8.9V20.2h-0.4v15l-15.2-9.5V10.5h-0.4v15l-15.9-9.9
					L30.4,26.5l0.8-14.9l-0.4,0l-0.8,15.2l-14.3,10L16.5,22l-0.4,0l-0.9,15.2L2.2,46.4l0.2,0.3l12.8-9l-0.9,16.7L1.4,63.2l0.2,0.3
					L14.3,55l-1,18l0,0.1l17,8.9L18,89.5l0.2,0.4l12.4-7.7L47,90.7l-11.8,7.4l0.2,0.4l12-7.5l14.4,7.5l0.2-0.4l-14.2-7.4l14.5-9.1
					l14.9,8.3l0.2-0.4l-14.7-8.2l15.1-9.4V52.9l14.1,8L92.1,60.5z M77.4,35.8v16.4l-15.2-8.6V26.3L77.4,35.8z M45.9,16.1L61.8,26
					v17.3L45,33.8l-0.1-0.1L29.5,44.1L30.4,27L45.9,16.1z M61.8,43.8v18.6l-15.7,9.7l-17.5-9.7l0.9-17.8l15.4-10.4L61.8,43.8z
					 M15.7,37.4l14.3-10l-0.9,17.1l-14.3,9.7L15.7,37.4z M13.7,72.9l1-18.2L29,45l-0.9,17.6l0,0.1l17.5,9.7l-15.1,9.3L13.7,72.9z
					 M47.4,90.5L31,81.9l15-9.3l15.8,8.8L47.4,90.5z M77.4,71.7l-15.1,9.4l-15.8-8.8l15.7-9.7V44l15.2,8.6V71.7z"/>
			</g>
			<g id="组_4551">
				<path id="路径_3517" class="st7" d="M89.8,178.1C41,178.1,1.4,138.4,1.5,89.5C1.5,40.6,41.2,1,90.1,1.1
					c48.9,0.1,88.5,39.8,88.4,88.7c0,23.4-9.4,45.9-25.9,62.5C135.9,168.8,113.4,178.2,89.8,178.1L89.8,178.1z M89.8,1.8
					c-48.5,0-88,39.4-88,87.8s39.5,87.8,88,87.8s88-39.4,88-87.8S138.4,1.8,89.8,1.8L89.8,1.8z"/>
				<circle class="st8" cx="89.5" cy="89.1" r="88"/>
				<ellipse id="椭圆_333" class="st9" cx="144.4" cy="20.4" rx="9.8" ry="9.7"/>
				<ellipse id="椭圆_332" class="st10" cx="38.3" cy="160.4" rx="6.2" ry="6.2"/>
			</g>
		</g>
		<rect id="矩形_1834" x="38.9" y="199.2" class="st9" width="109.3" height="0.8"/>
	</g>
</g>
</svg>
