<svg xmlns="http://www.w3.org/2000/svg" width="246" height="20" viewBox="0 0 246 20">
  <g id="组_101" data-name="组 101" transform="translate(851.301 -305.935)">
    <g id="组_91" data-name="组 91" transform="translate(-851.301 306.483)">
      <g id="组_90" data-name="组 90" transform="translate(0)">
        <path id="路径_35" data-name="路径 35" d="M-844.9,315.431c-.372,1.175-1.086,4.048-1.532,5.666-.673,2.415.318,3.449,1.815,3.449h2.57a2.9,2.9,0,0,0,2.993-2.181c.013-.037.02-.081.033-.118h4.176c-.247.839-.486,1.644-.722,2.4a4.768,4.768,0,0,1-4.931,3.6h-7.465c-2.473,0-4.095-1.72-2.992-5.694.738-2.665,1.914-7.391,2.521-9.335a5.315,5.315,0,0,1,5.084-3.755h7.682c2.267,0,3.37,1.636,2.885,4.105-.12.634-.251,1.261-.386,1.895h-4.143a.093.093,0,0,0,.006-.026,1.746,1.746,0,0,0-1.928-2.281h-2.586A3.218,3.218,0,0,0-844.9,315.431Z" transform="translate(851.301 -309.429)" fill="#e50019"/>
        <path id="路径_36" data-name="路径 36" d="M-238.958,328.156s3.52-13.641,3.984-15.12a5.315,5.315,0,0,1,5.084-3.749h11.436l-.658,2.863c-.125.458-.216.841-1.03.841h-8.216a2.987,2.987,0,0,0-2.9,2.265c-.119.367-.272.915-.439,1.537h11.352l-.558,2.464c-.161.66-.17,1.252-1.261,1.252h-10.5l-1.982,7.647Z" transform="translate(339.095 -309.287)" fill="#1b1311"/>
        <path id="路径_37" data-name="路径 37" d="M-102.511,313h-5.4l.7-3.081a.844.844,0,0,1,.919-.634H-91.28l-.662,2.886a.993.993,0,0,1-1.026.828h-5.045l-3.981,15.155h-4.5Z" transform="translate(229.482 -309.287)" fill="#1b1311"/>
        <path id="路径_38" data-name="路径 38" d="M-741.576,328.7l4.938-18.8h4.028l4.7,11.066,2.643-10.3c.164-.539.3-.771.948-.771h3.42l-4.937,18.8h-4.074l-4.57-11.253-2.792,10.593a.881.881,0,0,1-.822.66C-738.709,328.714-741.576,328.7-741.576,328.7Z" transform="translate(759.52 -309.801)" fill="#1b1311"/>
        <path id="路径_39" data-name="路径 39" d="M-508.82,328.528l4.934-18.8h4.5l-4.932,18.8Z" transform="translate(564.826 -309.659)" fill="#1b1311"/>
        <path id="路径_40" data-name="路径 40" d="M-339.157,315.431c-.362,1.175-1.081,4.048-1.526,5.666-.664,2.415.32,3.449,1.819,3.449h2.289a2.878,2.878,0,0,0,2.984-2.181,65.673,65.673,0,0,0,1.755-6.933,1.746,1.746,0,0,0-1.931-2.281h-2.293A3.232,3.232,0,0,0-339.157,315.431Zm-6.047,7.116c.739-2.665,1.917-7.391,2.526-9.335a5.315,5.315,0,0,1,5.088-3.755h7.205c2.264,0,3.651,1.289,3.168,3.755a112.882,112.882,0,0,1-2.882,11.431,4.76,4.76,0,0,1-4.927,3.6h-7.19C-344.678,328.241-346.3,326.521-345.2,322.547Z" transform="translate(428.259 -309.429)" fill="#1b1311"/>
        <path id="路径_41" data-name="路径 41" d="M-461.646,325.413c.1-.436.323-.716,1.011-.716h9.819c1.839,0,2.057-1.172,1.506-1.559-.958-.592-8.308-4.876-8.308-4.876-1.278-.828-1.87-1.361-1.718-2.784a7.93,7.93,0,0,1,1.406-3.618,6.248,6.248,0,0,1,5.1-2.242h11.3l-.614,2.67c-.147.554-.128,1.04-.986,1.04h-10.326c-1.6,0-1.856,1.208-1.306,1.586,2.351,1.439,7.263,4.294,7.263,4.294l1.256.75a2.919,2.919,0,0,1,1.606,2.809,7.57,7.57,0,0,1-1.525,3.872c-1.176,1.674-3.167,1.772-4.866,1.772h-11.3Z" transform="translate(525.942 -309.564)" fill="#1b1311"/>
        <path id="路径_42" data-name="路径 42" d="M-625.867,328.241l4.929-18.784H-609.9c2.654,0,3.8,1.784,3.557,4.037a7.52,7.52,0,0,1-.936,3.389,9.476,9.476,0,0,1-2.1,2.53,2.47,2.47,0,0,1,1.1,2.025,12.113,12.113,0,0,1-2.107,5.311,4.811,4.811,0,0,1-3.762,1.491Zm8.072-15.063-1.026,3.9h5.58c1.151,0,1.82-.721,2.181-1.948.383-1.3-.394-1.951-1.2-1.951Zm4.957,9.3c.326-1.217-.269-1.72-1.2-1.72h-5.748l-.984,3.783h5.619C-613.788,324.542-613.164,323.645-612.838,322.479Z" transform="translate(662.733 -309.429)" fill="#e50019"/>
      </g>
    </g>
    <g id="组_93" data-name="组 93" transform="translate(-715.167 305.936)">
      <g id="组_92" data-name="组 92" transform="translate(0)">
        <path id="路径_43" data-name="路径 43" d="M-9.816,305.943H30.327l-.977,3.639-3.423,12.723a5.1,5.1,0,0,1-4.624,3.636H-18.839l.98-3.636,3.426-12.723A5.09,5.09,0,0,1-9.816,305.943Z" transform="translate(18.839 -305.943)" fill="#e50019"/>
      </g>
    </g>
    <g id="组_98" data-name="组 98" transform="translate(-708.285 307.565)">
      <g id="组_95" data-name="组 95" transform="translate(0)">
        <path id="路径_44" data-name="路径 44" d="M40.741,322.306H37.789a1.824,1.824,0,0,0-1.75,1.412,1.19,1.19,0,0,0,1.248,1.408h2.948a1.814,1.814,0,0,0,1.75-1.408A1.184,1.184,0,0,0,40.741,322.306Zm-.2,1.925H37.305a.415.415,0,0,1-.422-.513.622.622,0,0,1,.607-.508h3.235a.415.415,0,0,1,.424.508A.645.645,0,0,1,40.537,324.231Z" transform="translate(-33.931 -321.258)" fill="#fff"/>
        <path id="路径_45" data-name="路径 45" d="M36.516,346.156H33.563a1.8,1.8,0,0,0-1.74,1.407,1.181,1.181,0,0,0,1.241,1.415h2.95a1.812,1.812,0,0,0,1.75-1.415A1.18,1.18,0,0,0,36.516,346.156Zm-.193,1.921H33.082a.423.423,0,0,1-.424-.514.64.64,0,0,1,.606-.507H36.5a.417.417,0,0,1,.425.507A.639.639,0,0,1,36.323,348.077Z" transform="translate(-30.402 -341.172)" fill="#fff"/>
        <path id="路径_46" data-name="路径 46" d="M48.152,369.583s1.531-.071,2.033.422c.587.571.562,1.189.02,2.129a3.307,3.307,0,0,0-.482,2.826s.156.552-.185.69a.482.482,0,0,1-.647-.366,3.077,3.077,0,0,1,.158-2.51c.556-1.273.763-1.563.577-1.978-.26-.562-1.7-.352-1.7-.352Z" transform="translate(-43.891 -360.711)" fill="#fff"/>
        <path id="路径_47" data-name="路径 47" d="M26.91,369.583a4.37,4.37,0,0,0-2.176.422,1.809,1.809,0,0,0-.788,2.129,3.308,3.308,0,0,1-.524,2.826s-.352.552-.059.69c.133.066.474.073.776-.366a3.51,3.51,0,0,0,.733-2.51c-.1-1.273-.2-1.563.137-1.978.459-.562,1.817-.352,1.817-.352Z" transform="translate(-23.247 -360.711)" fill="#fff"/>
        <path id="路径_48" data-name="路径 48" d="M77.246,371.672a.52.52,0,0,1-.492.417H69.246a.339.339,0,0,1-.341-.417h0a.515.515,0,0,1,.487-.408H76.9a.336.336,0,0,1,.346.408Z" transform="translate(-61.433 -362.154)" fill="#fff"/>
        <path id="路径_49" data-name="路径 49" d="M71.693,403a.518.518,0,0,1-.491.412H63.7A.334.334,0,0,1,63.36,403h0a.512.512,0,0,1,.487-.418h7.506a.34.34,0,0,1,.341.418Z" transform="translate(-56.794 -388.321)" fill="#fff"/>
        <path id="路径_50" data-name="路径 50" d="M87.016,316.711a.526.526,0,0,1-.492.409h-7.5a.338.338,0,0,1-.348-.409h0a.509.509,0,0,1,.495-.418h7.5a.339.339,0,0,1,.346.418Z" transform="translate(-69.604 -316.229)" fill="#fff"/>
        <path id="路径_51" data-name="路径 51" d="M86.709,378.883a.589.589,0,0,1-.572.459h0a.386.386,0,0,1-.4-.459l.765-4.292a.584.584,0,0,1,.565-.458h0a.383.383,0,0,1,.405.458Z" transform="translate(-75.511 -364.52)" fill="#fff"/>
        <path id="路径_52" data-name="路径 52" d="M75.619,327.21s-1.457,1.407-1.975,1.865c-.906.81-1.076,1.684-.506,2.385a17.188,17.188,0,0,1,1.337,1.821c.094.157.336.224.59.007.286-.252.226-.511.166-.566l-1.388-1.748a.735.735,0,0,1-.143-.489,1.684,1.684,0,0,1,.573-.959c.4-.422,1.847-1.784,1.847-1.784a.323.323,0,0,0,.016-.465A.409.409,0,0,0,75.619,327.21Z" transform="translate(-64.703 -325.309)" fill="#fff"/>
        <path id="路径_53" data-name="路径 53" d="M93.511,327.21s-1.474,1.407-1.988,1.865c-.914.81-1.074,1.684-.5,2.385a16.594,16.594,0,0,1,1.333,1.821c.089.157.337.224.6.007.278-.252.223-.511.159-.566l-1.384-1.748a.757.757,0,0,1-.143-.489,1.637,1.637,0,0,1,.569-.959c.4-.422,1.849-1.784,1.849-1.784a.329.329,0,0,0,.016-.465A.4.4,0,0,0,93.511,327.21Z" transform="translate(-79.659 -325.309)" fill="#fff"/>
        <path id="路径_54" data-name="路径 54" d="M109.851,327.21s-1.463,1.407-1.979,1.865c-.909.81-1.074,1.684-.5,2.385a17.987,17.987,0,0,1,1.336,1.821c.089.157.338.224.589.007.278-.252.223-.511.165-.566l-1.389-1.748a.784.784,0,0,1-.149-.489,1.756,1.756,0,0,1,.571-.959c.4-.422,1.847-1.784,1.847-1.784a.318.318,0,0,0,.014-.465A.4.4,0,0,0,109.851,327.21Z" transform="translate(-93.336 -325.309)" fill="#fff"/>
        <path id="路径_55" data-name="路径 55" d="M53.554,317.448l.2-1.126a.347.347,0,0,0-.355-.423.524.524,0,0,0-.5.423l-.2,1.126Z" transform="translate(-47.886 -315.9)" fill="#fff"/>
        <g id="组_94" data-name="组 94" transform="translate(2.453 3.431)">
          <path id="路径_56" data-name="路径 56" d="M48.992,338.718l.422-2.385h-.844l-.431,2.385Z" transform="translate(-46.521 -336.332)" fill="#fff"/>
          <path id="路径_57" data-name="路径 57" d="M39.6,360.244l-1.343,7.561a.347.347,0,0,0,.353.428.532.532,0,0,0,.5-.428l1.344-7.561Z" transform="translate(-38.246 -356.334)" fill="#fff"/>
        </g>
      </g>
      <g id="组_97" data-name="组 97" transform="translate(18.77 0.227)">
        <path id="路径_58" data-name="路径 58" d="M207.324,317.8H203.41a2.453,2.453,0,0,0-2.343,1.891,1.56,1.56,0,0,0,1.633,1.886h3.908a2.463,2.463,0,0,0,2.349-1.886A1.564,1.564,0,0,0,207.324,317.8Zm-1.069,2.921h-2.872c-.811,0-1.373-.466-1.27-1.031a1.638,1.638,0,0,1,1.656-1.03h2.874c.808,0,1.37.462,1.264,1.03A1.632,1.632,0,0,1,206.256,320.719Z" transform="translate(-190.732 -317.715)" fill="#fff"/>
        <path id="路径_59" data-name="路径 59" d="M155.021,333.676a.591.591,0,0,1-.548.46h0a.366.366,0,0,1-.369-.46l2.92-15.533a.579.579,0,0,1,.545-.456h0a.365.365,0,0,1,.369.456Z" transform="translate(-151.467 -317.623)" fill="#fff"/>
        <g id="组_96" data-name="组 96" transform="translate(0.947)">
          <path id="路径_60" data-name="路径 60" d="M146.823,326.486s-1.847.16-2.583-.505c-.784-.708-.39-1.832.436-3.161,1.055-1.728,1.074-2.422.555-4.521,0,0-.207-.578.224-.751.365-.141.49.043.6.3a5,5,0,0,1-.012,4.183c-.757,1.848-1.38,2.259-1.179,2.868.267.818,2.256.462,2.256.462Z" transform="translate(-143.815 -317.465)" fill="#fff"/>
          <path id="路径_61" data-name="路径 61" d="M166.563,326.311a4.509,4.509,0,0,0,2.607-.6,3.064,3.064,0,0,0,1.057-3.1,5.474,5.474,0,0,1,1-4.179s.42-.832.089-1.056-.78,0-1.117.67a6.745,6.745,0,0,0-1.03,3.643c.046,1.851.15,2.267-.282,2.871-.578.818-2.189.63-2.189.63Z" transform="translate(-162.843 -317.29)" fill="#fff"/>
        </g>
        <path id="路径_62" data-name="路径 62" d="M202.444,347.095a.591.591,0,0,1-.538.486h-4.1a.38.38,0,0,1-.357-.486h0a.6.6,0,0,1,.541-.488h4.1a.374.374,0,0,1,.351.488Z" transform="translate(-187.724 -341.785)" fill="#fff"/>
        <path id="路径_63" data-name="路径 63" d="M147.693,379.219a.526.526,0,0,1-.455.443h-6.714c-.209,0-.342-.2-.292-.443h0a.516.516,0,0,1,.46-.445H147.4c.206,0,.337.2.289.445Z" transform="translate(-139.863 -368.661)" fill="#fff"/>
        <path id="路径_64" data-name="路径 64" d="M145.5,390.743a.507.507,0,0,1-.449.444h-6.718c-.206,0-.341-.2-.292-.444h0a.521.521,0,0,1,.456-.445h6.715c.211,0,.341.2.288.445Z" transform="translate(-138.027 -378.29)" fill="#fff"/>
        <path id="路径_65" data-name="路径 65" d="M213.97,353.046a.6.6,0,0,1-.6.392h0c-.288,0-.489-.177-.443-.392l.7-3.726a.6.6,0,0,1,.6-.4h0c.288,0,.479.176.445.4Z" transform="translate(-200.671 -343.712)" fill="#fff"/>
        <path id="路径_66" data-name="路径 66" d="M203.554,346.58H198.9l-.192.985h4.449a1.116,1.116,0,0,1,1.128,1.377l-.044.229a1.75,1.75,0,0,1-1.652,1.381h-2.126l-.129.7h-2.356a1.946,1.946,0,0,0,1.054.289h3.586a2.906,2.906,0,0,0,2.742-2.291l.078-.379A1.855,1.855,0,0,0,203.554,346.58Z" transform="translate(-188.173 -341.752)" fill="#fff"/>
        <path id="路径_67" data-name="路径 67" d="M194.087,374.245h-1.843a.959.959,0,0,1-.867-1.257,1.5,1.5,0,0,1,1.343-1.253h1.839l.115-.58h3.208a1.541,1.541,0,0,0-1.1-.431h-3.914a2.643,2.643,0,0,0-2.393,2.173,1.676,1.676,0,0,0,1.575,2.169h1.882Z" transform="translate(-181.861 -361.922)" fill="#fff"/>
        <path id="路径_68" data-name="路径 68" d="M210.561,392.176a2.972,2.972,0,0,1,2.627,1.34c.942,1.491.894,1.954.894,1.954a.43.43,0,0,1-.291.474c-.36.122-.492-.33-.492-.33a4.653,4.653,0,0,0-1.085-1.8,2.05,2.05,0,0,0-1.639-.806C210.031,392.966,210.561,392.176,210.561,392.176Z" transform="translate(-198.506 -379.836)" fill="#fff"/>
      </g>
    </g>
    <g id="圆标_R" data-name="圆标 R" transform="translate(-662.9 306.103)">
      <g id="组_99" data-name="组 99" transform="translate(1.882 1.443)">
        <path id="路径_69" data-name="路径 69" d="M312.285,319.123v-3.337h1.5a2.058,2.058,0,0,1,.685.088.773.773,0,0,1,.371.318.954.954,0,0,1,.138.5.854.854,0,0,1-.231.6,1.188,1.188,0,0,1-.712.308,1.137,1.137,0,0,1,.263.167,2.493,2.493,0,0,1,.376.444l.581.907h-.56l-.441-.7c-.136-.2-.241-.351-.323-.459a1.079,1.079,0,0,0-.227-.221.662.662,0,0,0-.205-.092,1.4,1.4,0,0,0-.249-.016h-.32v1.484Zm.64-1.864h.762a1.5,1.5,0,0,0,.476-.062.522.522,0,0,0,.267-.2.553.553,0,0,0,.087-.3.472.472,0,0,0-.178-.389.8.8,0,0,0-.544-.154h-.87Z" transform="translate(-312.285 -315.786)" fill="#1b1311"/>
      </g>
      <path id="路径_70" data-name="路径 70" d="M303.97,306.964a3.167,3.167,0,1,0,3.193,3.167A3.18,3.18,0,0,0,303.97,306.964Zm0,5.822a2.654,2.654,0,1,1,2.681-2.654A2.667,2.667,0,0,1,303.97,312.785Z" transform="translate(-300.778 -306.964)" fill="#1b1311"/>
    </g>
    <g id="组_100" data-name="组 100" transform="translate(-653.142 305.935)">
      <path id="路径_71" data-name="路径 71" d="M360.532,313.478l3.089-5.431h3.261l-3.432,6.12h.772l1.03-1.638h3.518l-4.462,7.845h3.861v2.586h-7.723v-1.983l2.488-4.224h-2.4Zm-.086,14.224v-2.672h7.723V327.7Zm8.324-6.121v-2.586h11.155v2.586h-4.033v3.534h3.861V327.7H368.684v-2.586h4.033v-3.534Zm2.66-6.379,3.861-4.4h-6.436v-2.758h10.9V310.2l-3.175,3.879,1.2,1.121a1.137,1.137,0,0,0,.944.431h1.2v2.414h-2.832a1.49,1.49,0,0,1-1.373-.689l-1.03-1.035-.944.948a2.191,2.191,0,0,1-1.888.776H368.77v-2.414h1.545A1.082,1.082,0,0,0,371.43,315.2Z" transform="translate(-360.446 -307.702)" fill="#e50019"/>
      <path id="路径_72" data-name="路径 72" d="M535.542,307.629v-1.694h3.283v1.783h3.461v2.318h-3.461v3.209H542.2v2.407h-3.372v3.031h3.461v2.407h-3.461v1.961q-.089,2.762-2.485,2.852h-4.259v-2.228H535.1a.472.472,0,0,0,.532-.535v-2.05h-3.549v-2.407h3.549v-3.031h-3.638v-2.407h3.549v-3.209h-3.461v-2.407ZM542.73,325.9V305.935h9.051V312.8a2.3,2.3,0,0,1-.887,2.139,2.543,2.543,0,0,1,.887,2.228v5.972a2.127,2.127,0,0,1-2.13,2.139h-3.816v.624Zm5.945-12.39V308.7h-2.928v5.794h1.775Q548.674,314.492,548.676,313.512Zm0,8.825V317.7a.913.913,0,0,0-.887-.892h-2.041v5.883h2.573C548.557,322.753,548.676,322.635,548.676,322.337Z" transform="translate(-503.94 -305.935)" fill="#e50019"/>
    </g>
  </g>
</svg>
